<svg width="100" height="100" viewBox="0 0 100 100" fill="none" xmlns="http://www.w3.org/2000/svg">
<path fill-rule="evenodd" clip-rule="evenodd" d="M50 100C77.6143 100 100 77.6142 100 50C100 22.3858 77.6143 0 50 0C22.3857 0 0 22.3858 0 50C0 77.6142 22.3857 100 50 100ZM55.7341 73.694C60.7491 76.4958 64.0981 77.3581 66.4822 77.3581C67.7296 77.3715 68.9637 77.1013 70.0914 76.5679C72.2875 75.5456 73.6029 74.0421 74.9012 72.1001C75.6295 70.9963 76.2546 69.8278 76.7687 68.6094C76.797 68.543 76.8245 68.4801 76.851 68.4204C76.8737 68.3692 76.8956 68.3203 76.9165 68.2735L76.9255 68.2531C77.1954 67.6426 77.5956 66.7376 77.1608 65.5865C76.8688 64.8133 76.2716 64.1245 75.2004 63.0448C72.9983 60.8231 67.9772 57.8295 65.7787 56.7205L65.7593 56.7107C64.0854 55.8665 63.0712 55.355 61.8874 55.355H61.8801C60.5146 55.355 59.4861 56.0402 58.1842 57.0087C58.0196 57.1298 57.8611 57.2509 57.7067 57.369L57.6235 57.4325C56.3631 58.395 56.0028 58.6075 55.3457 58.467C54.0742 58.1959 50.4125 56.293 47.0745 52.9623C43.7365 49.6316 41.7053 45.8612 41.4329 44.5946C41.2986 43.9644 41.5026 43.6114 42.432 42.39C42.511 42.2859 42.5913 42.1803 42.6724 42.0725C42.7493 41.9703 42.8268 41.8662 42.9047 41.7598C43.7584 40.5958 44.462 39.5173 44.462 38.1188C44.4608 36.9271 43.9659 35.8642 43.2176 34.257L43.2125 34.2458C42.0937 31.8519 39.061 26.9774 36.8418 24.7887C35.7596 23.72 35.0683 23.1252 34.2939 22.8345C33.1337 22.3948 32.2177 22.8064 31.613 23.0788C31.5117 23.124 31.3981 23.174 31.2759 23.2266C30.0554 23.7366 28.8844 24.3581 27.7779 25.083C25.8298 26.3838 24.3226 27.6944 23.3016 29.8855C22.4442 31.7188 21.6771 36.0083 26.1767 44.1916C30.1596 51.4392 33.0054 55.2231 38.8534 61.0674C44.9188 67.1169 49.6357 70.2741 55.7341 73.694Z" fill="#EB6440"/>
</svg>
