<svg width="101" height="101" viewBox="0 0 101 101" fill="none" xmlns="http://www.w3.org/2000/svg">
<g clip-path="url(#clip0_76_15)">
<path fill-rule="evenodd" clip-rule="evenodd" d="M100.828 50.7871C100.828 78.4013 78.4424 100.787 50.8281 100.787C23.2138 100.787 0.828125 78.4013 0.828125 50.7871C0.828125 23.1729 23.2138 0.787109 50.8281 0.787109C78.4424 0.787109 100.828 23.1729 100.828 50.7871ZM21.6641 51.5127C21.6641 35.262 34.7163 22.0996 50.831 22.0996C66.9457 22.0996 79.9979 35.262 79.9979 51.5127C79.9969 57.6757 78.0791 63.683 74.5146 68.6891C70.9501 73.6951 65.9184 77.4477 60.1279 79.4184C58.6696 79.7126 58.1227 78.7934 58.1227 78.0213C58.1227 77.6894 58.1268 77.1149 58.1322 76.3502C58.143 74.8278 58.1592 72.5513 58.1592 69.9327C58.1592 67.1752 57.2477 65.4104 56.1904 64.4913C62.68 63.7559 69.4978 61.2558 69.4978 49.9685C69.4978 46.7331 68.3676 44.1227 66.5082 42.0638C66.7999 41.3284 67.8207 38.3136 66.2165 34.2693C66.2165 34.2693 63.7738 33.4604 58.1956 37.2841C55.8623 36.6223 53.3831 36.2914 50.9039 36.2914C48.4247 36.2914 45.9455 36.6223 43.6122 37.2841C38.034 33.4972 35.5913 34.2693 35.5913 34.2693C33.9871 38.3136 35.0079 41.3284 35.2996 42.0638C33.4402 44.1227 32.31 46.7699 32.31 49.9685C32.31 61.2191 39.0913 63.7559 45.5809 64.4913C44.7424 65.2266 43.9768 66.5134 43.7215 68.4253C42.0445 69.1974 37.8517 70.4474 35.2267 65.9987C34.6798 65.1163 33.0392 62.9471 30.7423 62.9838C28.2995 63.0206 29.7579 64.381 30.7787 64.9325C32.0183 65.631 33.4402 68.2414 33.7683 69.0871C34.3517 70.7415 36.2475 73.9035 43.5757 72.5431C43.5757 74.1505 43.5912 75.6953 43.602 76.7688C43.6078 77.3405 43.6122 77.7786 43.6122 78.0213C43.6122 78.7934 43.0653 79.6758 41.6069 79.4184C30.0131 75.5212 21.6641 64.528 21.6641 51.5127Z" fill="#EB6440"/>
</g>
<defs>
<clipPath id="clip0_76_15">
<rect width="150" height="150" fill="white" transform="translate(0.828125 0.787109)"/>
</clipPath>
</defs>
</svg>
