<svg width="101" height="101" viewBox="0 0 101 101" fill="none" xmlns="http://www.w3.org/2000/svg">
<path d="M50.3334 0.333313C63.9184 0.333313 65.6134 0.383313 70.9434 0.633313C76.2684 0.883313 79.8934 1.71831 83.0834 2.95831C86.3834 4.22831 89.1634 5.94831 91.9434 8.72331C94.4858 11.2228 96.4531 14.2463 97.7084 17.5833C98.9434 20.7683 99.7834 24.3983 100.033 29.7233C100.268 35.0533 100.333 36.7483 100.333 50.3333C100.333 63.9183 100.283 65.6133 100.033 70.9433C99.7834 76.2683 98.9434 79.8933 97.7084 83.0833C96.4568 86.4222 94.489 89.4464 91.9434 91.9433C89.4432 94.4849 86.4199 96.4521 83.0834 97.7083C79.8984 98.9433 76.2684 99.7833 70.9434 100.033C65.6134 100.268 63.9184 100.333 50.3334 100.333C36.7484 100.333 35.0534 100.283 29.7234 100.033C24.3984 99.7833 20.7734 98.9433 17.5834 97.7083C14.245 96.4557 11.221 94.488 8.72337 91.9433C6.18041 89.4442 4.21303 86.4207 2.95837 83.0833C1.71837 79.8983 0.883374 76.2683 0.633374 70.9433C0.398374 65.6133 0.333374 63.9183 0.333374 50.3333C0.333374 36.7483 0.383374 35.0533 0.633374 29.7233C0.883374 24.3933 1.71837 20.7733 2.95837 17.5833C4.20955 14.2442 6.17739 11.2199 8.72337 8.72331C11.2217 6.17947 14.2455 4.21196 17.5834 2.95831C20.7734 1.71831 24.3934 0.883313 29.7234 0.633313C35.0534 0.398313 36.7484 0.333313 50.3334 0.333313ZM50.3334 25.3333C43.703 25.3333 37.3441 27.9672 32.6557 32.6556C27.9673 37.3441 25.3334 43.7029 25.3334 50.3333C25.3334 56.9637 27.9673 63.3226 32.6557 68.011C37.3441 72.6994 43.703 75.3333 50.3334 75.3333C56.9638 75.3333 63.3226 72.6994 68.011 68.011C72.6995 63.3226 75.3334 56.9637 75.3334 50.3333C75.3334 43.7029 72.6995 37.3441 68.011 32.6556C63.3226 27.9672 56.9638 25.3333 50.3334 25.3333V25.3333ZM82.8334 24.0833C82.8334 22.4257 82.1749 20.836 81.0028 19.6639C79.8307 18.4918 78.241 17.8333 76.5834 17.8333C74.9258 17.8333 73.3361 18.4918 72.164 19.6639C70.9918 20.836 70.3334 22.4257 70.3334 24.0833C70.3334 25.7409 70.9918 27.3306 72.164 28.5027C73.3361 29.6748 74.9258 30.3333 76.5834 30.3333C78.241 30.3333 79.8307 29.6748 81.0028 28.5027C82.1749 27.3306 82.8334 25.7409 82.8334 24.0833ZM50.3334 35.3333C54.3116 35.3333 58.1269 36.9137 60.94 39.7267C63.753 42.5398 65.3334 46.3551 65.3334 50.3333C65.3334 54.3116 63.753 58.1269 60.94 60.9399C58.1269 63.753 54.3116 65.3333 50.3334 65.3333C46.3551 65.3333 42.5398 63.753 39.7268 60.9399C36.9137 58.1269 35.3334 54.3116 35.3334 50.3333C35.3334 46.3551 36.9137 42.5398 39.7268 39.7267C42.5398 36.9137 46.3551 35.3333 50.3334 35.3333V35.3333Z" fill="black"/>
</svg>
