<svg width="101" height="101" viewBox="0 0 101 101" fill="none" xmlns="http://www.w3.org/2000/svg">
<path d="M92.2521 0.25H8.79463C4.23437 0.25 0.25 3.53124 0.25 8.03793V91.6807C0.25 96.2119 4.23437 100.25 8.79463 100.25H92.2275C96.8124 100.25 100.25 96.1851 100.25 91.6807V8.03793C100.277 3.53124 96.8124 0.25 92.2521 0.25ZM31.2477 83.6048H16.9218V39.0624H31.2477V83.6048ZM24.5803 32.2901H24.4776C19.8928 32.2901 16.9241 28.8772 16.9241 24.6049C16.9241 20.2544 19.971 16.9218 24.6584 16.9218C29.3459 16.9218 32.2142 20.2299 32.3169 24.6049C32.3147 28.8772 29.3459 32.2901 24.5803 32.2901ZM83.6048 83.6048H69.2789V59.2499C69.2789 53.4151 67.1941 49.4285 62.0111 49.4285C58.0513 49.4285 55.7075 52.1071 54.6651 54.7164C54.2745 55.6539 54.1696 56.9307 54.1696 58.2343V83.6048H39.8437V39.0624H54.1696V45.2611C56.2544 42.2923 59.5111 38.02 67.0892 38.02C76.4932 38.02 83.607 44.2187 83.607 57.5825L83.6048 83.6048Z" fill="black"/>
</svg>
