<svg width="101" height="89" viewBox="0 0 101 89" fill="none" xmlns="http://www.w3.org/2000/svg">
<path d="M99.4693 17.8784L85.6483 31.6537C82.9025 63.6433 55.9012 88.4937 23.6369 88.4937C17.001 88.4937 11.5092 87.4411 7.34462 85.3816C4.00378 83.6883 2.63084 81.9035 2.26472 81.3543C1.9618 80.8942 1.76661 80.3717 1.69368 79.8257C1.62075 79.2797 1.67198 78.7243 1.84353 78.2008C2.01509 77.6774 2.30255 77.1993 2.68451 76.8024C3.06647 76.4055 3.53307 76.0999 4.04955 75.9083C4.14108 75.8625 14.9416 71.7437 21.9436 63.8264C17.6012 60.7345 13.7844 56.9641 10.6397 52.6597C4.3699 44.1475 -2.26601 29.3654 1.71554 7.30674C1.8407 6.65095 2.14065 6.04114 2.58369 5.54171C3.02673 5.04228 3.59643 4.67177 4.23261 4.46931C4.87082 4.26034 5.55421 4.23092 6.20801 4.38428C6.86182 4.53765 7.46085 4.86788 7.93956 5.33885C8.07686 5.52191 23.3166 20.5328 41.9429 25.3839V22.5922C41.9608 19.6894 42.5504 16.8186 43.6779 14.1436C44.8054 11.4686 46.4487 9.04195 48.5141 7.0021C50.5794 4.96225 53.0263 3.34918 55.7151 2.25501C58.4039 1.16083 61.2818 0.606977 64.1846 0.625063C67.9945 0.6794 71.7253 1.71968 75.0136 3.64454C78.3019 5.5694 81.0356 8.31321 82.9482 11.6086H96.8607C97.5836 11.6064 98.2909 11.8181 98.8935 12.2172C99.4962 12.6162 99.9673 13.1848 100.247 13.8511C100.511 14.5274 100.578 15.2645 100.44 15.9772C100.303 16.6899 99.966 17.3491 99.4693 17.8784Z" fill="black"/>
</svg>
